<?xml version="1.0" encoding="UTF-8" standalone="no"?>
<!-- Created with Inkscape (http://www.inkscape.org/) -->

<svg
   width="101.54522mm"
   height="111.88621mm"
   viewBox="0 0 101.54522 111.88621"
   version="1.1"
   id="svg1"
   xmlns:xlink="http://www.w3.org/1999/xlink"
   xmlns="http://www.w3.org/2000/svg"
   xmlns:svg="http://www.w3.org/2000/svg">
  <defs
     id="defs1">
    <linearGradient
       id="linearGradient1">
      <stop
         style="stop-color:#b366c5;stop-opacity:1;"
         offset="0"
         id="stop1" />
      <stop
         style="stop-color:#8beafb;stop-opacity:1;"
         offset="1"
         id="stop2" />
    </linearGradient>
    <linearGradient
       xlink:href="#linearGradient1"
       id="linearGradient2"
       x1="53.87019"
       y1="111.53879"
       x2="155.41542"
       y2="111.53879"
       gradientUnits="userSpaceOnUse" />
  </defs>
  <g
     id="layer1"
     transform="translate(-53.870191,-55.595694)">
    <path
       d="m 154.01125,69.577849 c -9.46467,-10.043582 -30.74458,-23.84028 -66.986939,-3.510755 -1.21311,-1.444096 -8.69685,-9.929813 -17.19844,-10.206567 -1.353877,-0.02778 -2.700871,0.701146 -3.363917,1.950509 -0.661987,1.24751 -0.557212,2.731029 0.273315,3.87297 l 2.242608,3.081602 -5.916877,5.914761 -3.080279,-2.24367 c -1.140089,-0.82999 -2.622814,-0.93636 -3.871118,-0.27622 -1.250421,0.66146 -1.999457,1.94998 -1.954213,3.36391 0.274638,8.50477 8.757708,15.98956 10.199952,17.20215 -20.343812,36.229921 -6.555581,57.519621 3.483769,66.989591 0.979223,0.92419 2.21006,1.40547 3.4671,1.40547 0.69083,0 1.39012,-0.145 2.0611,-0.44212 1.87881,-0.83132 3.06864,-2.70775 3.03134,-4.78182 -0.23152,-12.73201 10.10655,-20.62718 10.27535,-20.75471 1.31578,-1.06389 2.64531,-1.99998 3.9759,-2.83369 2.46062,1.98517 5.49777,3.06891 8.70373,3.0697 0.001,0 0.002,0 0.003,0 3.711569,0 7.202489,-1.44568 9.827679,-4.07035 l 5.09799,-5.09535 c 1.69969,0.0844 2.95672,0.25771 3.62638,0.36936 l 16.75501,16.76162 c 5.4737,5.47635 5.47158,14.38487 -0.005,19.8583 -2.65192,2.65086 -6.17776,4.11057 -9.92664,4.11057 -0.001,0 -0.002,0 -0.004,0 -3.75126,-5.3e-4 -7.27657,-1.46182 -9.92849,-4.1148 l -6.79423,-6.79741 c -0.81068,-0.81306 -2.13228,-0.81465 -2.94746,-5.3e-4 -0.81439,0.81359 -0.81439,2.1336 0,2.94799 l 6.79397,6.79741 c 3.43853,3.44011 8.01079,5.33559 12.87516,5.33612 0.002,0 0.002,0 0.005,0 4.86198,0 9.43451,-1.89283 12.87383,-5.33057 7.10115,-7.09877 7.10485,-18.6518 0.005,-25.75427 l -16.75531,-16.76241 c -0.11324,-0.66834 -0.28866,-1.92141 -0.37491,-3.61633 l 5.42105,-5.4184 c 5.08476,-5.08371 5.4012,-13.157201 0.95038,-18.612911 0.78396,-1.21999 1.64994,-2.43893 2.62784,-3.64781 0.0767,-0.10292 7.79992,-10.20604 20.27952,-10.20604 0.14182,0 0.28628,0.002 0.43048,0.004 0.0325,8e-4 0.0651,0.001 0.0966,0.001 2.03518,0 3.86847,-1.18189 4.6863,-3.03133 0.83794,-1.89283 0.46911,-4.01134 -0.9615,-5.52926 z m -85.920785,11.85889 c -1.576917,0 -2.855383,-1.27847 -2.855383,-2.85538 0,-1.57692 1.278466,-2.85512 2.855383,-2.85512 1.576916,0 2.855116,1.2782 2.855116,2.85512 0,1.57691 -1.2782,2.85538 -2.855116,2.85538 z m 8.657426,-8.65399 c -1.57691,0 -2.85511,-1.2782 -2.85511,-2.85512 0,-1.57692 1.2782,-2.855383 2.85511,-2.855383 1.57692,0 2.85512,1.278463 2.85512,2.855383 0,1.57692 -1.2782,2.85512 -2.85512,2.85512 z m 29.489669,51.577341 c -1.8378,1.83754 -4.28175,2.84983 -6.880229,2.84983 -0.001,0 -0.001,0 -0.002,0 -1.62983,-2.6e-4 -3.19828,-0.39952 -4.59502,-1.14988 4.85934,-2.29738 9.559139,-3.3147 13.475499,-3.69702 z m 16.71717,-16.70896 -2.32569,2.32463 c 0.39476,-4.03411 1.47188,-8.90614 3.93991,-13.944071 2.06163,3.70443 1.52929,8.476451 -1.61422,11.619441 z"
       id="path1"
       style="fill:url(#linearGradient2);stroke-width:0.264583" />
  </g>
</svg>
